<?xml version="1.0" encoding="UTF-8" standalone="no"?>
<!-- Created with Inkscape (http://www.inkscape.org/) -->

<svg
   width="512"
   height="512"
   viewBox="0 0 512 512"
   version="1.1"
   id="svg5"
   inkscape:version="1.2.2 (732a01da63, 2022-12-09)"
   sodipodi:docname="favicon.svg"
   inkscape:export-filename="icon.png"
   inkscape:export-xdpi="96"
   inkscape:export-ydpi="96"
   xmlns:inkscape="http://www.inkscape.org/namespaces/inkscape"
   xmlns:sodipodi="http://sodipodi.sourceforge.net/DTD/sodipodi-0.dtd"
   xmlns="http://www.w3.org/2000/svg"
   xmlns:svg="http://www.w3.org/2000/svg">
  <sodipodi:namedview
     id="namedview7"
     pagecolor="#000000"
     bordercolor="#000000"
     borderopacity="0.25"
     inkscape:showpageshadow="2"
     inkscape:pageopacity="0"
     inkscape:pagecheckerboard="true"
     inkscape:deskcolor="#d1d1d1"
     inkscape:document-units="px"
     showgrid="false"
     inkscape:zoom="0.21044923"
     inkscape:cx="-484.67748"
     inkscape:cy="-161.55916"
     inkscape:window-width="2560"
     inkscape:window-height="1377"
     inkscape:window-x="-8"
     inkscape:window-y="-8"
     inkscape:window-maximized="1"
     inkscape:current-layer="layer1" />
  <defs
     id="defs2" />
  <g
     inkscape:label="Layer 1"
     inkscape:groupmode="layer"
     id="layer1">
    <path
       id="path382"
       style="fill:#a48773;fill-opacity:0.85531914"
       sodipodi:type="inkscape:offset"
       inkscape:radius="23.983232"
       inkscape:original="M 249.36328 31.302734 C 243.476 31.552883 237.71493 32.917909 231.92188 33.890625 C 228.69164 34.460316 225.45151 35.000398 222.18164 35.283203 C 221.79288 35.313763 221.01217 35.370793 220.47266 35.388672 C 218.64547 35.362872 216.74 35.529203 215.16406 36.546875 C 211.97172 38.492196 210.12017 41.936964 208.67969 45.267578 C 205.69262 52.521912 204.34831 60.307595 203.07031 68.007812 C 202.78111 69.50668 202.67313 71.058131 202.20312 72.511719 C 201.10405 74.40512 198.90571 75.245781 196.93164 75.917969 C 193.16822 77.02947 189.08808 77.400609 185.24609 76.472656 C 181.64712 75.388603 178.77124 72.778053 176.18945 70.152344 C 172.30382 66.020715 168.96884 61.358559 166.31641 56.345703 C 165.85104 55.477771 165.7251 54.333952 164.73047 53.873047 C 163.00681 52.985667 161.00348 52.912639 159.11523 52.650391 C 150.73737 51.843668 142.30978 51.735269 133.89844 51.736328 C 127.80044 51.791618 121.68092 51.846246 115.61914 52.572266 C 114.06019 52.741077 112.52635 53.111795 111.11328 53.800781 C 105.61865 55.679889 100.00875 57.230644 94.619141 59.412109 C 88.924915 61.71176 83.218419 64.400039 78.681641 68.628906 C 75.720466 71.381016 73.465536 75.138582 73.359375 79.265625 C 73.04238 85.016414 75.515588 90.520439 78.769531 95.125 C 83.576339 101.88233 89.935559 107.34751 96.503906 112.33008 C 105.20675 118.89511 114.62316 124.41667 123.94531 130.03711 C 125.00798 130.76219 126.23245 131.35341 127.125 132.26758 C 128.11152 133.93895 129.98301 134.77453 131.55859 135.78711 C 138.42362 139.76196 145.59187 143.38951 151.73242 148.51562 C 154.12454 150.60471 156.58486 152.94289 157.55664 156.05859 C 157.96139 157.54254 157.81748 159.36616 156.69727 160.50586 C 155.4141 161.34572 153.77792 160.85694 152.39258 160.57031 C 147.28033 159.23397 142.46907 156.57163 137.10742 156.31836 C 134.94427 156.20805 132.78108 156.83121 131.00586 158.07227 C 124.45368 162.20797 119.17934 168.29634 115.82812 175.26758 C 113.11503 180.96498 111.78862 187.60808 113.50391 193.79688 C 115.74749 202.56195 121.30191 210.14924 128.01562 216.06836 C 136.58176 223.60334 146.92564 228.91859 157.7207 232.46875 C 162.78531 234.0981 167.97607 235.40092 173.25781 236.07227 C 176.84178 236.25918 180.03108 234.24566 182.87695 232.30664 C 185.21113 230.80073 187.39601 228.87328 190.13477 228.15234 C 191.51631 227.72644 192.79203 228.60875 193.73633 229.52539 C 196.29204 231.88408 196.89095 235.57199 196.73633 238.89258 C 196.44661 244.91583 194.60906 250.71032 193.16602 256.52539 C 191.69375 262.35613 190.14899 268.32654 190.58008 274.39258 C 190.86408 278.39336 192.47208 282.40857 195.55078 285.07031 C 202.43546 291.35011 211.2763 295.10213 220.28125 297.15234 C 231.19745 299.55909 242.73268 299.60338 253.54297 296.625 C 261.4124 294.42625 269.00578 290.36274 274.2207 283.94336 C 276.52572 281.18471 277.29348 277.39827 276.69922 273.89844 C 275.85883 268.67622 273.21359 263.99793 270.81836 259.35938 C 268.4834 254.82869 265.86423 250.30588 264.88086 245.24609 C 264.25983 242.20703 264.76224 238.83555 266.80078 236.41211 C 269.55519 233.0622 273.74487 231.3056 277.85547 230.27344 C 280.59449 229.64656 283.49454 229.01877 286.26758 229.82617 C 291.01874 231.12521 295.06122 234.07569 299.25977 236.53125 C 302.82826 238.62805 306.6181 240.81399 310.85547 241.00195 C 313.67238 241.10356 316.65491 240.10133 318.54688 237.95312 C 320.4753 235.61739 320.33958 232.3724 319.92969 229.54688 C 319.53196 226.42346 318.52628 223.3048 318.94922 220.13281 C 319.19338 218.19215 320.96802 217.02017 322.47852 216.04688 C 326.70159 213.61784 331.62001 212.8249 336.39648 212.29688 C 341.63647 211.74013 346.9119 211.88021 352.16992 211.74023 C 356.58511 211.26187 360.97238 211.20469 365.41406 210.95703 C 373.37011 210.54968 381.34605 210.24524 389.25586 209.25195 C 391.212 208.90713 393.32324 208.77294 395.03711 207.67969 C 396.72289 206.3296 397.11939 204.03994 397.55664 202.04492 C 398.55304 196.22366 398.62207 190.29152 398.61328 184.40039 C 398.54628 181.37605 398.58287 178.32732 398.11914 175.33203 C 397.51802 173.72731 396.35092 172.40463 395.40039 170.99609 C 388.25015 161.18912 380.78266 151.62388 373.50195 141.91797 C 369.57743 136.65148 365.55111 131.45152 361.92188 125.97461 C 361.368 125.46257 361.62394 124.9361 362.04102 124.43164 C 365.49362 119.3928 369.40232 114.68738 373.21875 109.92383 C 377.42141 104.72536 381.72972 99.611437 385.92969 94.412109 C 387.25498 92.211527 387.8673 89.67105 388.57812 87.224609 C 390.26042 80.70318 391.33251 73.938578 390.88672 67.189453 C 390.58161 62.813891 389.44312 58.235816 386.35352 54.960938 C 380.2614 48.0199 371.66478 43.736867 362.80664 41.523438 C 351.50315 38.718457 339.59236 38.797588 328.19141 40.992188 C 323.57173 41.926856 318.98496 43.151886 314.63477 44.982422 C 309.33946 47.451828 305.523 52.166889 302.53125 57.046875 C 296.66148 66.745003 293.33242 77.684221 288.16211 87.732422 C 286.26277 91.245258 284.16958 94.876947 280.83594 97.21875 C 278.71092 98.7368 275.88202 99.009805 273.44141 98.15625 C 271.57276 97.718039 270.14695 96.189068 269.58789 94.386719 C 268.37369 90.65395 268.80798 86.639443 269.32812 82.822266 C 270.43047 75.555029 272.78626 68.571281 274.93164 61.566406 C 275.3315 60.468328 275.31492 59.251485 274.76562 58.205078 C 273.0451 54.504833 270.71336 51.128976 268.44531 47.75 C 265.16822 43.079109 261.80301 38.411329 257.70312 34.417969 C 256.19011 32.947808 254.36962 31.61539 252.19922 31.433594 C 251.26087 31.302264 250.30958 31.287326 249.36328 31.302734 z "
       d="m 248.97266,7.3222656 a 23.985631,23.985631 0 0 0 -0.62696,0.019531 c -8.92143,0.3790694 -15.65424,2.1005385 -20.39453,2.8964841 a 23.985631,23.985631 0 0 0 -0.19531,0.0332 c -3.07022,0.54147 -5.60157,0.938095 -7.61133,1.113282 -0.29428,0.01788 -0.75235,0.04267 -0.4668,0.0332 l 1.13282,-0.0098 c -3.47303,-0.04904 -10.50862,-0.115007 -18.36328,4.839844 -10.20354,6.331615 -13.77621,14.868536 -15.7793,19.5 a 23.985631,23.985631 0 0 0 -0.16602,0.388672 c -0.64196,1.559064 -1.10775,3.054157 -1.63281,4.572265 -2.12594,-2.907973 -5.32885,-6.275422 -9.76953,-8.419922 -7.5893,-3.741388 -12.4914,-3.367567 -12.68555,-3.394531 a 23.985631,23.985631 0 0 0 -1,-0.117187 c -9.70127,-0.934158 -18.90012,-1.024523 -27.51953,-1.023438 a 23.985631,23.985631 0 0 0 -0.21289,0 c -6.04965,0.05485 -13.00423,0.07923 -20.74609,0.994141 -3.60157,0.397891 -7.86087,1.315089 -12.33399,3.496094 l 2.75196,-1.136719 c -4.587508,1.56888 -10.641044,3.202988 -17.730473,6.072266 -8.5e-4,3.44e-4 -0.0011,0.0016 -0.002,0.002 -6.5491,2.64519 -15.127897,6.297481 -23.285156,13.898437 -6.423513,5.97628 -12.503939,14.949774 -12.923829,27.248047 -0.615693,13.243382 4.674875,23.426605 9.771485,30.638675 a 23.985631,23.985631 0 0 0 0.04297,0.0605 c 7.057695,9.92159 15.425476,16.82879 22.783204,22.41016 a 23.985631,23.985631 0 0 0 0.05078,0.0391 c 8.383125,6.32385 16.621664,11.32061 24.427733,16.01172 -4.99808,5.14992 -9.190337,10.97112 -12.275389,17.38867 a 23.985631,23.985631 0 0 0 -0.03906,0.0801 c -4.49738,9.44435 -7.484055,21.61417 -3.824219,35.04688 3.813196,14.62475 12.443971,25.80184 21.804691,34.05468 a 23.985631,23.985631 0 0 0 0.0215,0.0176 c 11.55557,10.16455 24.8282,16.82664 38.05274,21.17578 a 23.985631,23.985631 0 0 0 0.14648,0.0469 c 5.37492,1.72918 11.25507,3.17306 17.50586,4.13476 -0.95772,4.70492 -1.69364,10.05833 -1.22461,16.65821 0.65178,9.17644 4.20349,19.19041 13.03125,26.92968 10.8593,9.79096 23.50643,14.83745 35.26953,17.51563 a 23.985631,23.985631 0 0 0 0.16016,0.0352 c 14.32483,3.15826 29.71591,3.32883 44.79687,-0.82618 a 23.985631,23.985631 0 0 0 0.082,-0.0234 c 11.34178,-3.16894 23.44743,-9.19114 32.70703,-20.50782 7.45311,-8.98453 9.25676,-19.62507 7.64649,-29.24023 -0.42777,-2.6199 -1.00808,-5.00962 -1.67773,-7.17969 3.16953,1.06712 6.72411,1.97098 11.12109,2.16602 a 23.985631,23.985631 0 0 0 0.19726,0.008 c 9.10396,0.32839 18.8454,-2.41066 26.55469,-11.16406 a 23.985631,23.985631 0 0 0 0.4961,-0.58203 c 5.05121,-6.1181 6.6503,-12.15672 7.05078,-17.23633 2.66677,-0.0776 4.87925,-0.16932 8.71679,-0.27149 a 23.985631,23.985631 0 0 0 1.94532,-0.13086 c 2.90051,-0.31425 6.84093,-0.39696 11.88671,-0.67578 l 0.0801,-0.004 c 0.0125,-7e-4 0.0168,-0.001 0.0293,-0.002 7.72066,-0.39406 16.24934,-0.69258 25.49414,-1.85351 a 23.985631,23.985631 0 0 0 1.17578,-0.17774 c 0.0983,-0.0173 6.02315,0.44651 14.51563,-4.9707 a 23.985631,23.985631 0 0 0 2.09375,-1.5 c 10.58044,-8.47355 10.69026,-18.01244 10.95508,-19.2207 a 23.985631,23.985631 0 0 0 0.21093,-1.08789 c 1.42245,-8.31035 1.4095,-15.62406 1.40039,-21.72657 a 23.985631,23.985631 0 0 0 -0.006,-0.49609 c -0.0548,-2.47424 0.0999,-6.59164 -0.76953,-12.20703 a 23.985631,23.985631 0 0 0 -1.24219,-4.74414 c -2.6597,-7.10022 -5.54399,-9.70409 -5.29687,-9.33789 a 23.985631,23.985631 0 0 0 -0.50195,-0.71289 c -7.44442,-10.21045 -14.96383,-19.83852 -22.04688,-29.2793 l -0.0195,-0.0273 c -0.008,-0.0108 -0.0173,-0.0224 -0.0254,-0.0332 -0.50838,-0.68205 -0.84538,-1.18087 -1.3418,-1.84375 0.2245,-0.27967 0.34838,-0.46178 0.57618,-0.74609 0.005,-0.007 0.008,-0.0109 0.0137,-0.0176 3.9814,-4.92254 8.26624,-10.01017 12.65039,-15.4375 a 23.985631,23.985631 0 0 0 1.88867,-2.69726 c 3.84958,-6.39205 4.63552,-11.15089 5.13477,-12.869144 a 23.985631,23.985631 0 0 0 0.1914,-0.701172 c 2.06871,-8.019322 3.6995,-17.281452 3.01758,-27.605469 a 23.985631,23.985631 0 0 0 -0.006,-0.08789 C 414.30541,58.249351 412.5384,47.970361 404.04102,38.791016 393.84527,27.359696 380.86669,21.315729 368.62109,18.255859 a 23.985631,23.985631 0 0 0 -0.0391,-0.0098 c -15.2282,-3.778905 -30.58337,-3.565122 -44.92383,-0.804688 a 23.985631,23.985631 0 0 0 -0.22265,0.04297 c -5.58764,1.130508 -11.7241,2.708155 -18.10352,5.392578 a 23.985631,23.985631 0 0 0 -0.83398,0.369141 c -6.87756,3.207266 -11.76865,7.556243 -15.5918,11.960937 -0.16387,-0.241678 -0.39278,-0.594639 -0.54687,-0.824219 a 23.985631,23.985631 0 0 0 -0.28126,-0.408203 C 284.68206,29.134144 280.53009,23.172565 274.4375,17.238281 a 23.985631,23.985631 0 0 0 -0.0215,-0.02148 C 271.25891,14.149101 265.14043,8.6878204 254.7207,7.6367188 252.33155,7.3675196 250.25391,7.3014038 248.97266,7.3222656 Z M 296,47.058594 l 0.51367,1.035156 c -0.12781,-0.274888 -0.25984,-0.44318 -0.38867,-0.710938 -0.0541,-0.106363 -0.0693,-0.218145 -0.125,-0.324218 z M 138.23828,132.36133 c 0.0299,0.002 0.0677,0.007 0.0566,0.008 -0.0215,-0.001 -0.0351,-0.007 -0.0566,-0.008 z m 18.91016,4.46679 c 0.49464,0.14615 0.91701,0.26184 0.73828,0.30469 -0.1056,-0.0415 -0.58892,-0.23709 -0.73828,-0.30469 z m -38.94336,0.9629 c -0.17448,0.11013 -0.31906,0.25166 -0.49219,0.36328 -0.14471,0.0979 -0.30572,0.16139 -0.44922,0.26172 z"
       transform="matrix(-1.0650892,-0.01957107,-0.02158379,1.0297428,511.98585,12.907989)" />
    <path
       id="path382-2"
       style="fill:#c9b6aa;fill-opacity:0.72340423"
       sodipodi:type="inkscape:offset"
       inkscape:radius="23.983232"
       inkscape:original="M 249.36328 31.302734 C 243.476 31.552883 237.71493 32.917909 231.92188 33.890625 C 228.69164 34.460316 225.45151 35.000398 222.18164 35.283203 C 221.79288 35.313763 221.01217 35.370793 220.47266 35.388672 C 218.64547 35.362872 216.74 35.529203 215.16406 36.546875 C 211.97172 38.492196 210.12017 41.936964 208.67969 45.267578 C 205.69262 52.521912 204.34831 60.307595 203.07031 68.007812 C 202.78111 69.50668 202.67313 71.058131 202.20312 72.511719 C 201.10405 74.40512 198.90571 75.245781 196.93164 75.917969 C 193.16822 77.02947 189.08808 77.400609 185.24609 76.472656 C 181.64712 75.388603 178.77124 72.778053 176.18945 70.152344 C 172.30382 66.020715 168.96884 61.358559 166.31641 56.345703 C 165.85104 55.477771 165.7251 54.333952 164.73047 53.873047 C 163.00681 52.985667 161.00348 52.912639 159.11523 52.650391 C 150.73737 51.843668 142.30978 51.735269 133.89844 51.736328 C 127.80044 51.791618 121.68092 51.846246 115.61914 52.572266 C 114.06019 52.741077 112.52635 53.111795 111.11328 53.800781 C 105.61865 55.679889 100.00875 57.230644 94.619141 59.412109 C 88.924915 61.71176 83.218419 64.400039 78.681641 68.628906 C 75.720466 71.381016 73.465536 75.138582 73.359375 79.265625 C 73.04238 85.016414 75.515588 90.520439 78.769531 95.125 C 83.576339 101.88233 89.935559 107.34751 96.503906 112.33008 C 105.20675 118.89511 114.62316 124.41667 123.94531 130.03711 C 125.00798 130.76219 126.23245 131.35341 127.125 132.26758 C 128.11152 133.93895 129.98301 134.77453 131.55859 135.78711 C 138.42362 139.76196 145.59187 143.38951 151.73242 148.51562 C 154.12454 150.60471 156.58486 152.94289 157.55664 156.05859 C 157.96139 157.54254 157.81748 159.36616 156.69727 160.50586 C 155.4141 161.34572 153.77792 160.85694 152.39258 160.57031 C 147.28033 159.23397 142.46907 156.57163 137.10742 156.31836 C 134.94427 156.20805 132.78108 156.83121 131.00586 158.07227 C 124.45368 162.20797 119.17934 168.29634 115.82812 175.26758 C 113.11503 180.96498 111.78862 187.60808 113.50391 193.79688 C 115.74749 202.56195 121.30191 210.14924 128.01562 216.06836 C 136.58176 223.60334 146.92564 228.91859 157.7207 232.46875 C 162.78531 234.0981 167.97607 235.40092 173.25781 236.07227 C 176.84178 236.25918 180.03108 234.24566 182.87695 232.30664 C 185.21113 230.80073 187.39601 228.87328 190.13477 228.15234 C 191.51631 227.72644 192.79203 228.60875 193.73633 229.52539 C 196.29204 231.88408 196.89095 235.57199 196.73633 238.89258 C 196.44661 244.91583 194.60906 250.71032 193.16602 256.52539 C 191.69375 262.35613 190.14899 268.32654 190.58008 274.39258 C 190.86408 278.39336 192.47208 282.40857 195.55078 285.07031 C 202.43546 291.35011 211.2763 295.10213 220.28125 297.15234 C 231.19745 299.55909 242.73268 299.60338 253.54297 296.625 C 261.4124 294.42625 269.00578 290.36274 274.2207 283.94336 C 276.52572 281.18471 277.29348 277.39827 276.69922 273.89844 C 275.85883 268.67622 273.21359 263.99793 270.81836 259.35938 C 268.4834 254.82869 265.86423 250.30588 264.88086 245.24609 C 264.25983 242.20703 264.76224 238.83555 266.80078 236.41211 C 269.55519 233.0622 273.74487 231.3056 277.85547 230.27344 C 280.59449 229.64656 283.49454 229.01877 286.26758 229.82617 C 291.01874 231.12521 295.06122 234.07569 299.25977 236.53125 C 302.82826 238.62805 306.6181 240.81399 310.85547 241.00195 C 313.67238 241.10356 316.65491 240.10133 318.54688 237.95312 C 320.4753 235.61739 320.33958 232.3724 319.92969 229.54688 C 319.53196 226.42346 318.52628 223.3048 318.94922 220.13281 C 319.19338 218.19215 320.96802 217.02017 322.47852 216.04688 C 326.70159 213.61784 331.62001 212.8249 336.39648 212.29688 C 341.63647 211.74013 346.9119 211.88021 352.16992 211.74023 C 356.58511 211.26187 360.97238 211.20469 365.41406 210.95703 C 373.37011 210.54968 381.34605 210.24524 389.25586 209.25195 C 391.212 208.90713 393.32324 208.77294 395.03711 207.67969 C 396.72289 206.3296 397.11939 204.03994 397.55664 202.04492 C 398.55304 196.22366 398.62207 190.29152 398.61328 184.40039 C 398.54628 181.37605 398.58287 178.32732 398.11914 175.33203 C 397.51802 173.72731 396.35092 172.40463 395.40039 170.99609 C 388.25015 161.18912 380.78266 151.62388 373.50195 141.91797 C 369.57743 136.65148 365.55111 131.45152 361.92188 125.97461 C 361.368 125.46257 361.62394 124.9361 362.04102 124.43164 C 365.49362 119.3928 369.40232 114.68738 373.21875 109.92383 C 377.42141 104.72536 381.72972 99.611437 385.92969 94.412109 C 387.25498 92.211527 387.8673 89.67105 388.57812 87.224609 C 390.26042 80.70318 391.33251 73.938578 390.88672 67.189453 C 390.58161 62.813891 389.44312 58.235816 386.35352 54.960938 C 380.2614 48.0199 371.66478 43.736867 362.80664 41.523438 C 351.50315 38.718457 339.59236 38.797588 328.19141 40.992188 C 323.57173 41.926856 318.98496 43.151886 314.63477 44.982422 C 309.33946 47.451828 305.523 52.166889 302.53125 57.046875 C 296.66148 66.745003 293.33242 77.684221 288.16211 87.732422 C 286.26277 91.245258 284.16958 94.876947 280.83594 97.21875 C 278.71092 98.7368 275.88202 99.009805 273.44141 98.15625 C 271.57276 97.718039 270.14695 96.189068 269.58789 94.386719 C 268.37369 90.65395 268.80798 86.639443 269.32812 82.822266 C 270.43047 75.555029 272.78626 68.571281 274.93164 61.566406 C 275.3315 60.468328 275.31492 59.251485 274.76562 58.205078 C 273.0451 54.504833 270.71336 51.128976 268.44531 47.75 C 265.16822 43.079109 261.80301 38.411329 257.70312 34.417969 C 256.19011 32.947808 254.36962 31.61539 252.19922 31.433594 C 251.26087 31.302264 250.30958 31.287326 249.36328 31.302734 z "
       d="m 248.97266,7.3222656 a 23.985631,23.985631 0 0 0 -0.62696,0.019531 c -8.92143,0.3790694 -15.65424,2.1005385 -20.39453,2.8964841 a 23.985631,23.985631 0 0 0 -0.19531,0.0332 c -3.07022,0.54147 -5.60157,0.938095 -7.61133,1.113282 -0.29428,0.01788 -0.75235,0.04267 -0.4668,0.0332 l 1.13282,-0.0098 c -3.47303,-0.04904 -10.50862,-0.115007 -18.36328,4.839844 -10.20354,6.331615 -13.77621,14.868536 -15.7793,19.5 a 23.985631,23.985631 0 0 0 -0.16602,0.388672 c -0.64196,1.559064 -1.10775,3.054157 -1.63281,4.572265 -2.12594,-2.907973 -5.32885,-6.275422 -9.76953,-8.419922 -7.5893,-3.741388 -12.4914,-3.367567 -12.68555,-3.394531 a 23.985631,23.985631 0 0 0 -1,-0.117187 c -9.70127,-0.934158 -18.90012,-1.024523 -27.51953,-1.023438 a 23.985631,23.985631 0 0 0 -0.21289,0 c -6.04965,0.05485 -13.00423,0.07923 -20.74609,0.994141 -3.60157,0.397891 -7.86087,1.315089 -12.33399,3.496094 l 2.75196,-1.136719 c -4.587508,1.56888 -10.641044,3.202988 -17.730473,6.072266 -8.5e-4,3.44e-4 -0.0011,0.0016 -0.002,0.002 -6.5491,2.64519 -15.127897,6.297481 -23.285156,13.898437 -6.423513,5.97628 -12.503939,14.949774 -12.923829,27.248047 -0.615693,13.243382 4.674875,23.426605 9.771485,30.638675 a 23.985631,23.985631 0 0 0 0.04297,0.0605 c 7.057695,9.92159 15.425476,16.82879 22.783204,22.41016 a 23.985631,23.985631 0 0 0 0.05078,0.0391 c 8.383125,6.32385 16.621664,11.32061 24.427733,16.01172 -4.99808,5.14992 -9.190337,10.97112 -12.275389,17.38867 a 23.985631,23.985631 0 0 0 -0.03906,0.0801 c -4.49738,9.44435 -7.484055,21.61417 -3.824219,35.04688 3.813196,14.62475 12.443971,25.80184 21.804691,34.05468 a 23.985631,23.985631 0 0 0 0.0215,0.0176 c 11.55557,10.16455 24.8282,16.82664 38.05274,21.17578 a 23.985631,23.985631 0 0 0 0.14648,0.0469 c 5.37492,1.72918 11.25507,3.17306 17.50586,4.13476 -0.95772,4.70492 -1.69364,10.05833 -1.22461,16.65821 0.65178,9.17644 4.20349,19.19041 13.03125,26.92968 10.8593,9.79096 23.50643,14.83745 35.26953,17.51563 a 23.985631,23.985631 0 0 0 0.16016,0.0352 c 14.32483,3.15826 29.71591,3.32883 44.79687,-0.82618 a 23.985631,23.985631 0 0 0 0.082,-0.0234 c 11.34178,-3.16894 23.44743,-9.19114 32.70703,-20.50782 7.45311,-8.98453 9.25676,-19.62507 7.64649,-29.24023 -0.42777,-2.6199 -1.00808,-5.00962 -1.67773,-7.17969 3.16953,1.06712 6.72411,1.97098 11.12109,2.16602 a 23.985631,23.985631 0 0 0 0.19726,0.008 c 9.10396,0.32839 18.8454,-2.41066 26.55469,-11.16406 a 23.985631,23.985631 0 0 0 0.4961,-0.58203 c 5.05121,-6.1181 6.6503,-12.15672 7.05078,-17.23633 2.66677,-0.0776 4.87925,-0.16932 8.71679,-0.27149 a 23.985631,23.985631 0 0 0 1.94532,-0.13086 c 2.90051,-0.31425 6.84093,-0.39696 11.88671,-0.67578 l 0.0801,-0.004 c 0.0125,-7e-4 0.0168,-0.001 0.0293,-0.002 7.72066,-0.39406 16.24934,-0.69258 25.49414,-1.85351 a 23.985631,23.985631 0 0 0 1.17578,-0.17774 c 0.0983,-0.0173 6.02315,0.44651 14.51563,-4.9707 a 23.985631,23.985631 0 0 0 2.09375,-1.5 c 10.58044,-8.47355 10.69026,-18.01244 10.95508,-19.2207 a 23.985631,23.985631 0 0 0 0.21093,-1.08789 c 1.42245,-8.31035 1.4095,-15.62406 1.40039,-21.72657 a 23.985631,23.985631 0 0 0 -0.006,-0.49609 c -0.0548,-2.47424 0.0999,-6.59164 -0.76953,-12.20703 a 23.985631,23.985631 0 0 0 -1.24219,-4.74414 c -2.6597,-7.10022 -5.54399,-9.70409 -5.29687,-9.33789 a 23.985631,23.985631 0 0 0 -0.50195,-0.71289 c -7.44442,-10.21045 -14.96383,-19.83852 -22.04688,-29.2793 l -0.0195,-0.0273 c -0.008,-0.0108 -0.0173,-0.0224 -0.0254,-0.0332 -0.50838,-0.68205 -0.84538,-1.18087 -1.3418,-1.84375 0.2245,-0.27967 0.34838,-0.46178 0.57618,-0.74609 0.005,-0.007 0.008,-0.0109 0.0137,-0.0176 3.9814,-4.92254 8.26624,-10.01017 12.65039,-15.4375 a 23.985631,23.985631 0 0 0 1.88867,-2.69726 c 3.84958,-6.39205 4.63552,-11.15089 5.13477,-12.869144 a 23.985631,23.985631 0 0 0 0.1914,-0.701172 c 2.06871,-8.019322 3.6995,-17.281452 3.01758,-27.605469 a 23.985631,23.985631 0 0 0 -0.006,-0.08789 C 414.30541,58.249351 412.5384,47.970361 404.04102,38.791016 393.84527,27.359696 380.86669,21.315729 368.62109,18.255859 a 23.985631,23.985631 0 0 0 -0.0391,-0.0098 c -15.2282,-3.778905 -30.58337,-3.565122 -44.92383,-0.804688 a 23.985631,23.985631 0 0 0 -0.22265,0.04297 c -5.58764,1.130508 -11.7241,2.708155 -18.10352,5.392578 a 23.985631,23.985631 0 0 0 -0.83398,0.369141 c -6.87756,3.207266 -11.76865,7.556243 -15.5918,11.960937 -0.16387,-0.241678 -0.39278,-0.594639 -0.54687,-0.824219 a 23.985631,23.985631 0 0 0 -0.28126,-0.408203 C 284.68206,29.134144 280.53009,23.172565 274.4375,17.238281 a 23.985631,23.985631 0 0 0 -0.0215,-0.02148 C 271.25891,14.149101 265.14043,8.6878204 254.7207,7.6367188 252.33155,7.3675196 250.25391,7.3014038 248.97266,7.3222656 Z M 296,47.058594 l 0.51367,1.035156 c -0.12781,-0.274888 -0.25984,-0.44318 -0.38867,-0.710938 -0.0541,-0.106363 -0.0693,-0.218145 -0.125,-0.324218 z M 138.23828,132.36133 c 0.0299,0.002 0.0677,0.007 0.0566,0.008 -0.0215,-0.001 -0.0351,-0.007 -0.0566,-0.008 z m 18.91016,4.46679 c 0.49464,0.14615 0.91701,0.26184 0.73828,0.30469 -0.1056,-0.0415 -0.58892,-0.23709 -0.73828,-0.30469 z m -38.94336,0.9629 c -0.17448,0.11013 -0.31906,0.25166 -0.49219,0.36328 -0.14471,0.0979 -0.30572,0.16139 -0.44922,0.26172 z"
       transform="matrix(0.72242636,-0.29948219,0.29812929,0.96714825,35.4014,128.29396)" />
    <path
       style="fill:#808080;stroke:none;stroke-width:4.37501;stroke-dasharray:none;stroke-opacity:1"
       d="m 117.01172,452.51483 58.20878,-65.27359 17.81901,-64.22467 39.20181,10.99477 36.232,-16.83339 24.94661,15.01357 43.35959,-14.02784 45.1415,84.02793 131.80036,115.98979 -516.7513277,0.83409 61.8027357,-33.8443 z"
       id="path113"
       sodipodi:nodetypes="cccccccccccc" />
    <path
       style="fill:#ce702c;fill-opacity:1;stroke-width:1.03186"
       d="m 191.591,315.65093 c 0,0 -33.05325,77.79999 -27.65597,95.07453 2.54417,8.14287 26.28975,-27.67511 34.37302,-24.94751 4.45283,1.50255 12.2128,2.4606 14.04472,-1.2303 1.83192,-3.69089 6.71704,-15.37872 9.1596,-15.99388 2.44256,-0.61515 6.71704,-4.92119 9.77025,-3.6909 3.0532,1.23031 14.04472,16.60904 15.266,19.68478 1.22128,3.07575 1.52514,41.31258 5.79962,40.08228 4.27449,-1.2303 8.47154,-4.14059 12.13537,-9.06178 3.66385,-4.9212 7.49966,-44.56422 12.59703,-50.09013 14.66217,-12.53188 17.10793,8.98118 24.42561,13.53329 5.04881,2.83598 11.82904,5.47825 17.09793,3.07574 4.34309,-1.98036 5.49576,-8.61208 7.32769,-12.30298 2.78187,-9.26538 20.16761,-9.13704 20.76176,-9.84239 4.57167,-6.74547 10.37947,-14.3117 6.71705,-21.53022 l -14.04473,-27.68172 -42.13419,14.76358 -26.86817,-17.22418 -39.08097,19.06963 z"
       id="path460"
       sodipodi:nodetypes="cssssssssccsccsccccc" />
  </g>
</svg>
